<svg xmlns="http://www.w3.org/2000/svg" width="64" height="64" viewBox="0 0 512 512" fill="none">
  <rect width="512" height="512" rx="112" fill="#0a0506" />
  <g
    stroke="#b81f4d"
    stroke-width="34"
    stroke-linecap="round"
    stroke-linejoin="round"
    fill="none"
  >
    <path d="M196 286 a92 92 0 1 1 104 -18 c14 26 12 52 -10 74" />
    <path d="M150 268 c-30 -2 -52 18 -52 44 c0 20 16 34 34 34 c14 0 24 -10 24 -22 c0 -10 -8 -16 -16 -16 c-7 0 -12 5 -12 11" />
    <path d="M210 300 c-18 18 -26 40 -22 60 c3 16 16 26 30 24 c12 -2 19 -12 17 -23 c-2 -9 -10 -13 -17 -11" />
    <path d="M268 312 c10 22 8 46 -6 62 c-11 12 -26 13 -36 4 c-9 -8 -9 -20 -1 -27 c7 -6 16 -5 20 1" />
    <path d="M306 296 c28 6 50 28 50 54 c0 20 -16 34 -34 34 c-14 0 -24 -10 -24 -22 c0 -10 8 -16 16 -16 c7 0 12 5 12 11" />
  </g>
</svg>
